PathFileType	4	(X/Y/Z)	 s06c0001.trc
DataRate	CameraRate	NumFrames	NumMarkers	Units	OrigDataRate	OrigDataStartFrame	OrigNumFrames
200	200	4	49	mm	200	501	2000
Frame#	Time	racr			lacr			c7			jug			rlel			rdr			llel			ldr			s2			lic			ric			lasi			rasi			rpsi			lpsi			rgt			lgt			rth1			rth2			rth3			rth4			rlfc			rmfc			rsh1			rsh2			rsh3			rsh4			rlmal			rmmal			rcal			rtoe			rmt5			rmt1			lth1			lth2			lth4			lth3			llfc			lmfc			llmal			lmmal			lcal			lmt1			lmt5			lsh1			lsh2			lsh3			lsh4			ltoe			
		X1	Y1	Z1	X2	Y2	Z2	X3	Y3	Z3	X4	Y4	Z4	X5	Y5	Z5	X6	Y6	Z6	X7	Y7	Z7	X8	Y8	Z8	X9	Y9	Z9	X10	Y10	Z10	X11	Y11	Z11	X12	Y12	Z12	X13	Y13	Z13	X14	Y14	Z14	X15	Y15	Z15	X16	Y16	Z16	X17	Y17	Z17	X18	Y18	Z18	X19	Y19	Z19	X20	Y20	Z20	X21	Y21	Z21	X22	Y22	Z22	X23	Y23	Z23	X24	Y24	Z24	X25	Y25	Z25	X26	Y26	Z26	X27	Y27	Z27	X28	Y28	Z28	X29	Y29	Z29	X30	Y30	Z30	X31	Y31	Z31	X32	Y32	Z32	X33	Y33	Z33	X34	Y34	Z34	X35	Y35	Z35	X36	Y36	Z36	X37	Y37	Z37	X38	Y38	Z38	X39	Y39	Z39	X40	Y40	Z40	X41	Y41	Z41	X42	Y42	Z42	X43	Y43	Z43	X44	Y44	Z44	X45	Y45	Z45	X46	Y46	Z46	X47	Y47	Z47	X48	Y48	Z48	X49	Y49	Z49	
501	2.5050	225.769501	1417.600018	397.766251	228.489457	1429.548539	43.296432	189.947994	1490.109533	217.505946	310.950600	1395.617736	223.885723	246.536729	1199.836514	575.573110	346.811419	1040.735438	766.122507	235.629630	1207.869684	-128.706376	332.192306	1070.875616	-329.595145	116.190317	964.651415	230.205207	268.581235	1008.433944	51.292481	279.153892	986.739237	388.490221	321.213717	955.279237	80.428007	333.441801	945.488220	350.678224	140.177681	998.369442	257.432029	127.108068	995.230013	193.872374	241.674173	871.731981	401.069980	246.904885	896.701545	27.969347	251.281476	749.705998	420.503023	259.567570	660.025560	413.837270	223.169088	582.266612	400.149107	296.036910	655.644145	404.484778	205.447687	473.363125	380.427162	220.669311	450.292397	272.214257	174.635220	353.357205	401.934963	188.358876	267.659381	382.024344	159.804684	186.568828	370.659819	216.861735	269.725468	354.608869	154.715939	99.775988	358.369733	199.879216	122.012844	273.256917	109.522234	65.701721	297.094633	382.146196	75.540217	334.591455	280.680000	43.230582	392.385749	303.936117	59.737360	276.960964	230.046690	764.035099	12.309991	243.985661	677.799802	17.389660	280.313191	674.181734	25.779852	211.539521	595.468531	29.571920	182.571639	477.224797	49.866432	203.694232	455.757264	159.794242	154.595049	99.240664	56.060486	171.038443	121.931719	141.102703	100.962766	58.884100	110.526697	310.739343	52.405654	132.998917	290.053407	51.095270	17.884809	160.085725	370.760672	24.010998	177.380283	285.939556	36.916850	150.099487	202.150080	38.009953	208.064379	286.308085	61.553335	380.342400	71.591690	69.508046	
502	2.5100	225.785735	1417.601032	397.781214	228.497328	1429.544720	43.288046	189.964134	1490.104408	217.499013	311.121879	1395.972713	223.878370	246.564222	1199.851276	575.582280	346.839832	1040.777602	766.165547	235.644403	1207.863456	-128.706002	332.226982	1070.870225	-329.573520	116.189516	964.665474	230.222283	268.592405	1008.427847	51.324916	279.172490	986.753518	388.489390	321.232590	955.286609	80.423891	333.429261	945.470446	350.687607	140.200375	998.374753	257.423368	127.105654	995.233175	193.890421	241.721656	871.721139	401.080073	246.918290	896.701500	27.983204	251.292584	749.708249	420.508945	259.566215	660.018687	413.838237	223.175623	582.246600	400.148429	296.041928	655.633669	404.496371	205.436419	473.363246	380.419462	220.653728	450.290304	272.217570	174.638673	353.339651	401.927777	188.371764	267.675475	382.014808	159.822995	186.568572	370.668789	216.859230	269.725643	354.611403	154.694492	99.774439	358.364637	199.901441	122.029635	273.248763	109.522594	65.714331	297.059810	382.140885	75.528013	334.579191	280.664562	43.230766	392.396180	303.934422	59.719311	276.980083	230.058370	764.038892	12.317141	243.983852	677.790270	17.413131	280.312166	674.184396	25.777648	211.539474	595.456063	29.571190	182.573389	477.231291	49.867375	203.673707	455.754311	159.795613	154.594345	99.248245	56.056598	171.032090	121.933737	141.095542	100.963775	58.880855	110.519029	310.743977	52.403048	133.002445	290.068062	51.085390	17.888970	160.086789	370.770144	24.004189	177.389182	285.936298	36.950692	150.119979	202.140364	38.027927	208.066208	286.291823	61.575546	380.331699	71.568962	69.514740	
503	2.5150	225.813133	1417.606081	397.767149	228.514368	1429.536833	43.301053	189.974222	1490.109910	217.516087	310.971945	1395.625804	223.902071	246.576200	1199.870299	575.601175	346.869224	1040.797640	766.179708	235.664043	1207.848859	-128.693223	332.273439	1070.869925	-329.551892	116.207886	964.662193	230.215768	268.604480	1008.430474	51.317434	279.180108	986.757735	388.485731	321.222905	955.279518	80.430927	333.458652	945.484420	350.699017	140.207819	998.369571	257.432370	127.059494	995.310691	193.916522	241.772972	871.715946	401.090553	246.929507	896.696676	27.981821	251.282979	749.728548	420.520722	259.579369	660.025994	413.840416	223.195949	582.251029	400.161852	296.047923	655.630172	404.501094	205.452913	473.356795	380.425788	220.660800	450.291267	272.223633	174.641064	353.356175	401.937956	188.383681	267.666221	382.036525	159.809422	186.559464	370.659891	216.887016	269.740808	354.612095	154.712253	99.786665	358.376872	199.903366	122.016627	273.252886	109.522374	65.700465	297.069792	382.142516	75.531605	334.588913	280.665310	43.228259	392.383834	303.939105	59.740234	276.963009	230.067621	764.037747	12.323128	243.983803	677.796653	17.407198	280.313283	674.191208	25.787711	211.540102	595.452497	29.579913	182.594039	477.223373	49.890411	203.705894	455.735835	159.806315	154.619947	99.228723	56.068271	171.051560	121.933522	141.086288	100.983375	58.869153	110.535500	310.754967	52.407272	132.999076	290.063452	51.084555	17.897411	160.097885	370.761352	24.022015	177.399819	285.943568	36.954189	150.093781	202.150884	38.022741	208.065507	286.306863	61.577879	380.354648	71.574565	69.513906	
504	2.5200	225.804203	1417.605590	397.776423	228.515620	1429.524404	43.296048	189.971468	1490.093504	217.519742	310.988181	1395.615117	223.886217	246.594190	1199.881224	575.608847	346.887368	1040.826313	766.195838	235.680919	1207.843297	-128.681243	332.287876	1070.880685	-329.557167	116.205258	964.667138	230.244946	268.596536	1008.446172	51.319583	279.190048	986.764952	388.508766	321.232835	955.281793	80.424879	333.464674	945.483565	350.696278	140.207577	998.377245	257.455032	127.117514	995.241524	193.891826	241.790286	871.707690	401.084014	246.932308	896.699006	27.987730	251.291009	749.709398	420.529495	259.583097	660.019428	413.852576	223.217866	582.201732	400.145069	296.055483	655.659017	404.513719	205.440063	473.355054	380.430005	220.656646	450.295152	272.221167	174.661721	353.328883	401.947359	188.381625	267.658326	382.039930	159.823028	186.568650	370.668371	216.885761	269.753846	354.615287	154.709061	99.789817	358.356281	199.881484	122.009614	273.242132	109.506499	65.722272	297.069941	382.152694	75.537542	334.598016	280.683563	43.235598	392.397658	303.921174	59.733192	276.968318	230.065329	764.038472	12.331717	243.983606	677.804807	17.401758	280.311687	674.181397	25.796896	211.531981	595.471237	29.581909	182.594067	477.223353	49.890411	203.711104	455.750211	159.806747	154.619122	99.229238	56.059449	171.024455	121.927697	141.101272	100.966334	58.891077	110.523049	310.746587	52.408564	132.998015	290.067978	51.086158	17.887956	160.101501	370.779994	24.017037	177.389179	285.925377	36.948509	150.122149	202.136153	38.032532	208.063246	286.296641	61.564553	380.357591	71.582362	69.505990	
